<mxfile host="Electron" agent="Mozilla/5.0 (Windows NT 10.0; Win64; x64) AppleWebKit/537.36 (KHTML, like Gecko) draw.io/26.1.1 Chrome/132.0.6834.210 Electron/34.3.3 Safari/537.36" version="26.1.1">
  <diagram name="Page-1" id="BxerXJIWmEDAOscGx3Iq">
    <mxGraphModel dx="1562" dy="909" grid="1" gridSize="10" guides="1" tooltips="1" connect="1" arrows="1" fold="1" page="1" pageScale="1" pageWidth="3300" pageHeight="4681" math="0" shadow="0">
      <root>
        <mxCell id="0" />
        <mxCell id="1" parent="0" />
        <mxCell id="jkbBQhQmtu9Z3aaaky3j-1" style="edgeStyle=orthogonalEdgeStyle;rounded=0;orthogonalLoop=1;jettySize=auto;html=1;" edge="1" parent="1" source="jkbBQhQmtu9Z3aaaky3j-2">
          <mxGeometry relative="1" as="geometry">
            <mxPoint x="610" y="1349.9499999999998" as="targetPoint" />
          </mxGeometry>
        </mxCell>
        <mxCell id="jkbBQhQmtu9Z3aaaky3j-2" value="Rest. Customer" style="shape=umlActor;verticalLabelPosition=bottom;verticalAlign=top;html=1;movable=1;resizable=1;rotatable=1;deletable=1;editable=1;locked=0;connectable=1;labelPosition=center;align=center;textShadow=0;" vertex="1" parent="1">
          <mxGeometry x="330" y="1309.95" width="40" height="80" as="geometry" />
        </mxCell>
        <mxCell id="jkbBQhQmtu9Z3aaaky3j-3" value="Rate Food Screen" style="shape=umlBoundary;whiteSpace=wrap;html=1;rotation=0;" vertex="1" parent="1">
          <mxGeometry x="620" y="1309.95" width="100" height="80" as="geometry" />
        </mxCell>
        <mxCell id="jkbBQhQmtu9Z3aaaky3j-4" value="Dish Selector" style="ellipse;shape=umlControl;whiteSpace=wrap;html=1;" vertex="1" parent="1">
          <mxGeometry x="830" y="1309.95" width="70" height="80" as="geometry" />
        </mxCell>
        <mxCell id="jkbBQhQmtu9Z3aaaky3j-5" style="edgeStyle=orthogonalEdgeStyle;rounded=0;orthogonalLoop=1;jettySize=auto;html=1;entryX=-0.04;entryY=0.501;entryDx=0;entryDy=0;entryPerimeter=0;" edge="1" parent="1" source="jkbBQhQmtu9Z3aaaky3j-3" target="jkbBQhQmtu9Z3aaaky3j-4">
          <mxGeometry relative="1" as="geometry" />
        </mxCell>
        <mxCell id="jkbBQhQmtu9Z3aaaky3j-6" value="List of Dishes" style="ellipse;shape=umlEntity;whiteSpace=wrap;html=1;" vertex="1" parent="1">
          <mxGeometry x="825" y="1189.95" width="80" height="80" as="geometry" />
        </mxCell>
        <mxCell id="jkbBQhQmtu9Z3aaaky3j-7" value="" style="endArrow=none;html=1;rounded=0;strokeWidth=2;" edge="1" parent="1">
          <mxGeometry width="50" height="50" relative="1" as="geometry">
            <mxPoint x="865" y="1319.95" as="sourcePoint" />
            <mxPoint x="864.71" y="1269.95" as="targetPoint" />
          </mxGeometry>
        </mxCell>
        <mxCell id="jkbBQhQmtu9Z3aaaky3j-8" value="Rating Selector" style="ellipse;shape=umlControl;whiteSpace=wrap;html=1;" vertex="1" parent="1">
          <mxGeometry x="1030" y="1309.95" width="70" height="80" as="geometry" />
        </mxCell>
        <mxCell id="jkbBQhQmtu9Z3aaaky3j-9" style="edgeStyle=orthogonalEdgeStyle;rounded=0;orthogonalLoop=1;jettySize=auto;html=1;entryX=0;entryY=0.5;entryDx=0;entryDy=0;entryPerimeter=0;" edge="1" parent="1" source="jkbBQhQmtu9Z3aaaky3j-4" target="jkbBQhQmtu9Z3aaaky3j-8">
          <mxGeometry relative="1" as="geometry" />
        </mxCell>
        <mxCell id="jkbBQhQmtu9Z3aaaky3j-10" value="List of Ratings (1/2/3 Stars)" style="ellipse;shape=umlEntity;whiteSpace=wrap;html=1;" vertex="1" parent="1">
          <mxGeometry x="1025" y="1189.95" width="80" height="80" as="geometry" />
        </mxCell>
        <mxCell id="jkbBQhQmtu9Z3aaaky3j-11" value="" style="endArrow=none;html=1;rounded=0;strokeWidth=2;" edge="1" parent="1">
          <mxGeometry width="50" height="50" relative="1" as="geometry">
            <mxPoint x="1064.79" y="1319.95" as="sourcePoint" />
            <mxPoint x="1064.5" y="1269.95" as="targetPoint" />
          </mxGeometry>
        </mxCell>
        <mxCell id="jkbBQhQmtu9Z3aaaky3j-12" value="Has the user chosen everything correctly?" style="ellipse;shape=umlControl;whiteSpace=wrap;html=1;fillColor=#e51400;fontColor=#ffffff;strokeColor=#B20000;" vertex="1" parent="1">
          <mxGeometry x="1035" y="1479.95" width="70" height="80" as="geometry" />
        </mxCell>
        <mxCell id="jkbBQhQmtu9Z3aaaky3j-13" style="edgeStyle=orthogonalEdgeStyle;rounded=0;orthogonalLoop=1;jettySize=auto;html=1;entryX=0.432;entryY=0.077;entryDx=0;entryDy=0;entryPerimeter=0;" edge="1" parent="1" source="jkbBQhQmtu9Z3aaaky3j-8" target="jkbBQhQmtu9Z3aaaky3j-12">
          <mxGeometry relative="1" as="geometry" />
        </mxCell>
        <mxCell id="jkbBQhQmtu9Z3aaaky3j-14" value="Yes" style="text;html=1;align=center;verticalAlign=middle;resizable=0;points=[];autosize=1;strokeColor=none;fillColor=none;" vertex="1" parent="1">
          <mxGeometry x="1080" y="1570.05" width="40" height="30" as="geometry" />
        </mxCell>
        <mxCell id="jkbBQhQmtu9Z3aaaky3j-15" value="&lt;font style=&quot;font-size: 11px;&quot;&gt;&quot;Rate Food&quot; Selection&lt;/font&gt;" style="text;html=1;align=center;verticalAlign=middle;resizable=0;points=[];autosize=1;strokeColor=none;fillColor=none;" vertex="1" parent="1">
          <mxGeometry x="470" y="1350" width="130" height="30" as="geometry" />
        </mxCell>
        <mxCell id="jkbBQhQmtu9Z3aaaky3j-16" value="Loop back to let user rate another dish" style="text;align=center;verticalAlign=middle;resizable=0;points=[];autosize=1;strokeColor=none;fillColor=none;textShadow=0;labelBorderColor=none;labelBackgroundColor=none;imageWidth=20;imageHeight=24;arcSize=12;rotation=-90;" vertex="1" parent="1">
          <mxGeometry x="1230" y="1410" width="230" height="30" as="geometry" />
        </mxCell>
        <mxCell id="jkbBQhQmtu9Z3aaaky3j-17" value="No" style="text;html=1;align=center;verticalAlign=middle;resizable=0;points=[];autosize=1;strokeColor=none;fillColor=none;" vertex="1" parent="1">
          <mxGeometry x="990" y="1490" width="40" height="30" as="geometry" />
        </mxCell>
        <mxCell id="jkbBQhQmtu9Z3aaaky3j-18" value="Rating Controller" style="ellipse;shape=umlControl;whiteSpace=wrap;html=1;" vertex="1" parent="1">
          <mxGeometry x="1035" y="1660" width="70" height="80" as="geometry" />
        </mxCell>
        <mxCell id="jkbBQhQmtu9Z3aaaky3j-19" style="edgeStyle=orthogonalEdgeStyle;rounded=0;orthogonalLoop=1;jettySize=auto;html=1;entryX=0.495;entryY=0.037;entryDx=0;entryDy=0;entryPerimeter=0;" edge="1" parent="1" source="jkbBQhQmtu9Z3aaaky3j-12" target="jkbBQhQmtu9Z3aaaky3j-18">
          <mxGeometry relative="1" as="geometry" />
        </mxCell>
        <mxCell id="jkbBQhQmtu9Z3aaaky3j-20" value="&lt;span style=&quot;font-size: 10px;&quot;&gt;&lt;font style=&quot;color: rgb(255, 255, 255);&quot;&gt;Error Msg &quot;Please select what&#39;s missing&quot;&lt;/font&gt;&lt;/span&gt;" style="shape=umlBoundary;whiteSpace=wrap;html=1;fillColor=#e51400;fontColor=#ffffff;strokeColor=#B20000;" vertex="1" parent="1">
          <mxGeometry x="610" y="1479.95" width="110" height="90.1" as="geometry" />
        </mxCell>
        <mxCell id="jkbBQhQmtu9Z3aaaky3j-21" value="No" style="text;html=1;align=center;verticalAlign=middle;resizable=0;points=[];autosize=1;strokeColor=none;fillColor=none;" vertex="1" parent="1">
          <mxGeometry x="1170" y="1840" width="40" height="30" as="geometry" />
        </mxCell>
        <mxCell id="jkbBQhQmtu9Z3aaaky3j-22" value="Yes" style="text;html=1;align=center;verticalAlign=middle;resizable=0;points=[];autosize=1;strokeColor=none;fillColor=none;" vertex="1" parent="1">
          <mxGeometry x="950" y="1850" width="40" height="30" as="geometry" />
        </mxCell>
        <mxCell id="jkbBQhQmtu9Z3aaaky3j-23" value="Show" style="ellipse;shape=umlControl;whiteSpace=wrap;html=1;fillColor=#e51400;fontColor=#ffffff;strokeColor=#B20000;" vertex="1" parent="1">
          <mxGeometry x="835" y="1479.95" width="70" height="80" as="geometry" />
        </mxCell>
        <mxCell id="jkbBQhQmtu9Z3aaaky3j-24" style="edgeStyle=orthogonalEdgeStyle;rounded=0;orthogonalLoop=1;jettySize=auto;html=1;entryX=0.969;entryY=0.506;entryDx=0;entryDy=0;entryPerimeter=0;fillColor=#e51400;strokeColor=#B20000;" edge="1" parent="1" source="jkbBQhQmtu9Z3aaaky3j-12" target="jkbBQhQmtu9Z3aaaky3j-23">
          <mxGeometry relative="1" as="geometry" />
        </mxCell>
        <mxCell id="jkbBQhQmtu9Z3aaaky3j-25" style="edgeStyle=orthogonalEdgeStyle;rounded=0;orthogonalLoop=1;jettySize=auto;html=1;fillColor=#e51400;strokeColor=#B20000;" edge="1" parent="1" source="jkbBQhQmtu9Z3aaaky3j-23">
          <mxGeometry relative="1" as="geometry">
            <mxPoint x="720" y="1520" as="targetPoint" />
          </mxGeometry>
        </mxCell>
        <mxCell id="jkbBQhQmtu9Z3aaaky3j-26" value="Did the user press the &quot;Back To Home&quot; Button ?" style="ellipse;shape=umlControl;whiteSpace=wrap;html=1;fillColor=#e51400;fontColor=#ffffff;strokeColor=#B20000;" vertex="1" parent="1">
          <mxGeometry x="1010" y="1830" width="95" height="100" as="geometry" />
        </mxCell>
        <mxCell id="jkbBQhQmtu9Z3aaaky3j-27" style="edgeStyle=orthogonalEdgeStyle;rounded=0;orthogonalLoop=1;jettySize=auto;html=1;entryX=0.51;entryY=0.02;entryDx=0;entryDy=0;entryPerimeter=0;" edge="1" parent="1" source="jkbBQhQmtu9Z3aaaky3j-18" target="jkbBQhQmtu9Z3aaaky3j-26">
          <mxGeometry relative="1" as="geometry" />
        </mxCell>
        <mxCell id="jkbBQhQmtu9Z3aaaky3j-28" style="edgeStyle=orthogonalEdgeStyle;rounded=0;orthogonalLoop=1;jettySize=auto;html=1;entryX=0.575;entryY=0.006;entryDx=0;entryDy=0;entryPerimeter=0;fillColor=#e51400;strokeColor=#B20000;" edge="1" parent="1" source="jkbBQhQmtu9Z3aaaky3j-26" target="jkbBQhQmtu9Z3aaaky3j-3">
          <mxGeometry relative="1" as="geometry">
            <Array as="points">
              <mxPoint x="1370" y="1870" />
              <mxPoint x="1370" y="1100" />
              <mxPoint x="678" y="1100" />
            </Array>
          </mxGeometry>
        </mxCell>
        <mxCell id="jkbBQhQmtu9Z3aaaky3j-29" value="Await correct input" style="ellipse;shape=umlControl;whiteSpace=wrap;html=1;fillColor=#e51400;fontColor=#ffffff;strokeColor=#B20000;" vertex="1" parent="1">
          <mxGeometry x="640" y="1660" width="70" height="80" as="geometry" />
        </mxCell>
        <mxCell id="jkbBQhQmtu9Z3aaaky3j-30" style="edgeStyle=orthogonalEdgeStyle;rounded=0;orthogonalLoop=1;jettySize=auto;html=1;entryX=0.344;entryY=0.12;entryDx=0;entryDy=0;entryPerimeter=0;fillColor=#e51400;strokeColor=#B20000;" edge="1" parent="1" source="jkbBQhQmtu9Z3aaaky3j-20" target="jkbBQhQmtu9Z3aaaky3j-29">
          <mxGeometry relative="1" as="geometry" />
        </mxCell>
        <mxCell id="jkbBQhQmtu9Z3aaaky3j-31" value="HomeScreen" style="shape=umlBoundary;whiteSpace=wrap;html=1;rotation=0;" vertex="1" parent="1">
          <mxGeometry x="620" y="1830" width="100" height="80" as="geometry" />
        </mxCell>
        <mxCell id="jkbBQhQmtu9Z3aaaky3j-32" style="edgeStyle=orthogonalEdgeStyle;rounded=0;orthogonalLoop=1;jettySize=auto;html=1;entryX=0.514;entryY=1.001;entryDx=0;entryDy=0;entryPerimeter=0;fillColor=#e51400;strokeColor=#B20000;" edge="1" parent="1" source="jkbBQhQmtu9Z3aaaky3j-29" target="jkbBQhQmtu9Z3aaaky3j-4">
          <mxGeometry relative="1" as="geometry">
            <Array as="points">
              <mxPoint x="530" y="1700" />
              <mxPoint x="530" y="1440" />
              <mxPoint x="866" y="1440" />
            </Array>
          </mxGeometry>
        </mxCell>
        <mxCell id="jkbBQhQmtu9Z3aaaky3j-33" style="edgeStyle=orthogonalEdgeStyle;rounded=0;orthogonalLoop=1;jettySize=auto;html=1;fillColor=#e51400;strokeColor=#B20000;" edge="1" parent="1" source="jkbBQhQmtu9Z3aaaky3j-29" target="jkbBQhQmtu9Z3aaaky3j-8">
          <mxGeometry relative="1" as="geometry">
            <Array as="points">
              <mxPoint x="530" y="1700" />
              <mxPoint x="530" y="1440" />
              <mxPoint x="1039" y="1440" />
            </Array>
          </mxGeometry>
        </mxCell>
        <mxCell id="jkbBQhQmtu9Z3aaaky3j-34" value="&lt;span style=&quot;color: rgb(0, 0, 0); font-family: Helvetica; font-size: 12px; font-style: normal; font-variant-ligatures: normal; font-variant-caps: normal; font-weight: 400; letter-spacing: normal; orphans: 2; text-align: center; text-indent: 0px; text-transform: none; widows: 2; word-spacing: 0px; -webkit-text-stroke-width: 0px; white-space: nowrap; background-color: rgb(251, 251, 251); text-decoration-thickness: initial; text-decoration-style: initial; text-decoration-color: initial; display: inline !important; float: none;&quot;&gt;Loop back to let user change things&lt;/span&gt;" style="text;whiteSpace=wrap;html=1;rotation=0;" vertex="1" parent="1">
          <mxGeometry x="450" y="1709.95" width="190" height="30.05" as="geometry" />
        </mxCell>
        <mxCell id="jkbBQhQmtu9Z3aaaky3j-35" style="edgeStyle=orthogonalEdgeStyle;rounded=0;orthogonalLoop=1;jettySize=auto;html=1;entryX=0.99;entryY=0.625;entryDx=0;entryDy=0;entryPerimeter=0;dashed=1;" edge="1" parent="1" source="jkbBQhQmtu9Z3aaaky3j-26" target="jkbBQhQmtu9Z3aaaky3j-31">
          <mxGeometry relative="1" as="geometry" />
        </mxCell>
        <mxCell id="jkbBQhQmtu9Z3aaaky3j-36" value="Redirect" style="edgeLabel;html=1;align=center;verticalAlign=middle;resizable=0;points=[];" vertex="1" connectable="0" parent="jkbBQhQmtu9Z3aaaky3j-35">
          <mxGeometry x="-0.0241" y="2" relative="1" as="geometry">
            <mxPoint as="offset" />
          </mxGeometry>
        </mxCell>
      </root>
    </mxGraphModel>
  </diagram>
</mxfile>
